# xmcd
#
# Track frame offsets: 
#        150
#        12008
#        24062
#        37048
#        49111
#        60571
#        73577
#        83572
#        96019
#        110513
#        122675
#        134283
#        147371
#        159974
#        171120
#        185605
#        197211
#        210583
#        224223
#        236026
#        248850
#        259034
#        271339
#        281316
#        292400
#
# Disc length: 4039 seconds
#
# Revision: 0
# Processed by: cddbd v1.5.2PL0 Copyright (c) Steve Scherf et al.
# Submitted via: ExactAudioCopy v1.0b3
#
DISCID=730fc519
DTITLE=Various Artist - The R&B Years 1953 Disk 1
DYEAR=1900
DGENRE=R&B
TTITLE0=Amos Milburn - Rock, Rock, Rock
TTITLE1=Little Willie Littlefield - K.C. Loving
TTITLE2=Chuck Higgins - Pachuko Hop
TTITLE3=Big Maybelle - Gabbin' Blues
TTITLE4=Tiny Bradshaw - Soft
TTITLE5=Percy Mayfield - The River's Invitations
TTITLE6=Fats Domino - Nobody Loves Me
TTITLE7=5 Royales - Baby Don't Do It
TTITLE8=Jesse and Marvin - Dream Girl
TTITLE9=Lloyd Price - Ain't It A Shame
TTITLE10=Roy Brown - Hurry Hurry Baby
TTITLE11=Ruth Brown - Mama, He Treats Your Daughter Mean
TTITLE12=Amos Milburn - Let Me Go Home, Whiskey
TTITLE13=Annisteen Allen - Baby I'm Doin' It
TTITLE14=Danny Overbea - Train, Train, Train
TTITLE15=The Clovers - Crawlin'
TTITLE16=B.B. King - Woke Up This Morning
TTITLE17=Earl Forest - Whoopin' And Hollerin'
TTITLE18=The Dominoes - Pedal Pushin' Papa
TTITLE19=Big Mama Thornton - Hound Dog
TTITLE20=Eddie Vinson - Person To Person
TTITLE21=Roy Brown - GrandPa Stole My Baby
TTITLE22=The Crows - Gee
TTITLE23=Wynonie Harris - Wasn't That Good
TTITLE24=Smiley Lewis - Big Mamou
EXTD=
EXTT0=
EXTT1=
EXTT2=
EXTT3=
EXTT4=
EXTT5=
EXTT6=
EXTT7=
EXTT8=
EXTT9=
EXTT10=
EXTT11=
EXTT12=
EXTT13=
EXTT14=
EXTT15=
EXTT16=
EXTT17=
EXTT18=
EXTT19=
EXTT20=
EXTT21=
EXTT22=
EXTT23=
EXTT24=
PLAYORDER=
